<mxfile host="drawio-plugin" modified="2021-05-30T10:54:31.664Z" agent="5.0 (Windows NT 6.2; Win64; x64) AppleWebKit/537.36 (KHTML, like Gecko) Chrome/84.0.4147.105 Safari/537.36" etag="eJOPghZSjZQHlIndoPf3" version="13.7.9" type="embed" pages="7"><diagram id="C5RBs43oDa-KdzZeNtuy" name="factory-method"><mxGraphModel dx="1951" dy="749" grid="1" gridSize="10" guides="1" tooltips="1" connect="1" arrows="1" fold="1" page="1" pageScale="1" pageWidth="827" pageHeight="1169" background="#F4F1DE" math="0" shadow="0"><root><mxCell id="WIyWlLk6GJQsqaUBKTNV-0"/><mxCell id="WIyWlLk6GJQsqaUBKTNV-1" parent="WIyWlLk6GJQsqaUBKTNV-0"/><mxCell id="YxWZyRbutUpzE7ro45F1-7" value="&lt;p style=&quot;margin: 0px ; margin-top: 4px ; text-align: center&quot;&gt;&lt;i&gt;&amp;lt;&amp;lt;Interface&amp;gt;&amp;gt;&lt;/i&gt;&lt;br&gt;&lt;b&gt;Notifiable&lt;/b&gt;&lt;/p&gt;&lt;hr size=&quot;1&quot;&gt;&lt;p style=&quot;margin: 0px ; margin-left: 4px&quot;&gt;+ display(): void&lt;br&gt;&lt;/p&gt;" style="verticalAlign=top;align=left;overflow=fill;fontSize=12;fontFamily=Helvetica;html=1;fillColor=#F2CC8F;strokeColor=#E07A5F;fontColor=#393C56;" parent="WIyWlLk6GJQsqaUBKTNV-1" vertex="1"><mxGeometry x="602" y="110" width="108" height="70" as="geometry"/></mxCell><mxCell id="YxWZyRbutUpzE7ro45F1-13" value="implements" style="edgeStyle=orthogonalEdgeStyle;rounded=0;orthogonalLoop=1;jettySize=auto;html=1;entryX=0;entryY=0.5;entryDx=0;entryDy=0;fontStyle=1;labelBackgroundColor=#F4F1DE;strokeColor=#E07A5F;fontColor=#393C56;" parent="WIyWlLk6GJQsqaUBKTNV-1" source="YxWZyRbutUpzE7ro45F1-12" target="YxWZyRbutUpzE7ro45F1-7" edge="1"><mxGeometry x="-0.0696" relative="1" as="geometry"><mxPoint as="offset"/></mxGeometry></mxCell><mxCell id="YxWZyRbutUpzE7ro45F1-12" value="&lt;p style=&quot;margin: 0px ; margin-top: 4px ; text-align: center&quot;&gt;&lt;b&gt;WindowsNotification&lt;/b&gt;&lt;/p&gt;&lt;hr size=&quot;1&quot;&gt;&lt;p style=&quot;margin: 0px ; margin-left: 4px&quot;&gt;+ display(): void&lt;/p&gt;" style="verticalAlign=top;align=left;overflow=fill;fontSize=12;fontFamily=Helvetica;html=1;fillColor=#F2CC8F;strokeColor=#E07A5F;fontColor=#393C56;" parent="WIyWlLk6GJQsqaUBKTNV-1" vertex="1"><mxGeometry x="500" y="200" width="142" height="60" as="geometry"/></mxCell><mxCell id="YxWZyRbutUpzE7ro45F1-15" value="implements" style="edgeStyle=orthogonalEdgeStyle;rounded=0;orthogonalLoop=1;jettySize=auto;html=1;entryX=1;entryY=0.5;entryDx=0;entryDy=0;fontStyle=1;labelBackgroundColor=#F4F1DE;strokeColor=#E07A5F;fontColor=#393C56;" parent="WIyWlLk6GJQsqaUBKTNV-1" source="YxWZyRbutUpzE7ro45F1-14" target="YxWZyRbutUpzE7ro45F1-7" edge="1"><mxGeometry x="-0.1667" relative="1" as="geometry"><mxPoint as="offset"/></mxGeometry></mxCell><mxCell id="YxWZyRbutUpzE7ro45F1-14" value="&lt;p style=&quot;margin: 0px ; margin-top: 4px ; text-align: center&quot;&gt;&lt;b&gt;MacOsNotification&lt;/b&gt;&lt;/p&gt;&lt;hr size=&quot;1&quot;&gt;&lt;p style=&quot;margin: 0px ; margin-left: 4px&quot;&gt;+ display(): void&lt;/p&gt;" style="verticalAlign=top;align=left;overflow=fill;fontSize=12;fontFamily=Helvetica;html=1;fillColor=#F2CC8F;strokeColor=#E07A5F;fontColor=#393C56;" parent="WIyWlLk6GJQsqaUBKTNV-1" vertex="1"><mxGeometry x="690" y="200" width="122" height="60" as="geometry"/></mxCell><mxCell id="YxWZyRbutUpzE7ro45F1-25" value="creates" style="edgeStyle=orthogonalEdgeStyle;rounded=0;orthogonalLoop=1;jettySize=auto;html=1;entryX=0.5;entryY=0;entryDx=0;entryDy=0;dashed=1;fontStyle=1;labelBackgroundColor=#F4F1DE;strokeColor=#E07A5F;fontColor=#393C56;" parent="WIyWlLk6GJQsqaUBKTNV-1" source="YxWZyRbutUpzE7ro45F1-16" target="YxWZyRbutUpzE7ro45F1-7" edge="1"><mxGeometry relative="1" as="geometry"><Array as="points"><mxPoint x="215" y="90"/><mxPoint x="656" y="90"/></Array></mxGeometry></mxCell><mxCell id="YxWZyRbutUpzE7ro45F1-16" value="&lt;p style=&quot;margin: 0px ; margin-top: 4px ; text-align: center&quot;&gt;&amp;lt;&amp;lt;Abstract&amp;gt;&amp;gt;&lt;/p&gt;&lt;p style=&quot;margin: 0px ; margin-top: 4px ; text-align: center&quot;&gt;&lt;b&gt;Notifier&lt;/b&gt;&lt;/p&gt;&lt;hr size=&quot;1&quot;&gt;&lt;p style=&quot;margin: 0px ; margin-left: 4px&quot;&gt;+ abstract createNotification(): Notifiable&lt;/p&gt;&lt;p style=&quot;margin: 0px ; margin-left: 4px&quot;&gt;+ sendNotification(): void&lt;/p&gt;" style="verticalAlign=top;align=left;overflow=fill;fontSize=12;fontFamily=Helvetica;html=1;fillColor=#F2CC8F;strokeColor=#E07A5F;fontColor=#393C56;" parent="WIyWlLk6GJQsqaUBKTNV-1" vertex="1"><mxGeometry x="100" y="130" width="230" height="80" as="geometry"/></mxCell><mxCell id="YxWZyRbutUpzE7ro45F1-19" value="extends" style="edgeStyle=orthogonalEdgeStyle;rounded=0;orthogonalLoop=1;jettySize=auto;html=1;entryX=0;entryY=0.5;entryDx=0;entryDy=0;fontStyle=1;labelBackgroundColor=#F4F1DE;strokeColor=#E07A5F;fontColor=#393C56;" parent="WIyWlLk6GJQsqaUBKTNV-1" source="YxWZyRbutUpzE7ro45F1-18" target="YxWZyRbutUpzE7ro45F1-16" edge="1"><mxGeometry relative="1" as="geometry"/></mxCell><mxCell id="YxWZyRbutUpzE7ro45F1-18" value="&lt;p style=&quot;margin: 0px ; margin-top: 4px ; text-align: center&quot;&gt;&lt;b&gt;WindowsNotifier&lt;/b&gt;&lt;/p&gt;&lt;hr size=&quot;1&quot;&gt;&lt;p style=&quot;margin: 0px ; margin-left: 4px&quot;&gt;+ abstract createNotification(): Notifiable&lt;br&gt;&lt;/p&gt;" style="verticalAlign=top;align=left;overflow=fill;fontSize=12;fontFamily=Helvetica;html=1;fillColor=#F2CC8F;strokeColor=#E07A5F;fontColor=#393C56;" parent="WIyWlLk6GJQsqaUBKTNV-1" vertex="1"><mxGeometry x="-40" y="270" width="226" height="50" as="geometry"/></mxCell><mxCell id="YxWZyRbutUpzE7ro45F1-23" value="extends" style="edgeStyle=orthogonalEdgeStyle;rounded=0;orthogonalLoop=1;jettySize=auto;html=1;entryX=1;entryY=0.5;entryDx=0;entryDy=0;fontStyle=1;labelBackgroundColor=#F4F1DE;strokeColor=#E07A5F;fontColor=#393C56;" parent="WIyWlLk6GJQsqaUBKTNV-1" source="YxWZyRbutUpzE7ro45F1-20" target="YxWZyRbutUpzE7ro45F1-16" edge="1"><mxGeometry relative="1" as="geometry"/></mxCell><mxCell id="YxWZyRbutUpzE7ro45F1-20" value="&lt;p style=&quot;margin: 0px ; margin-top: 4px ; text-align: center&quot;&gt;&lt;b&gt;MacOsNotifier&lt;/b&gt;&lt;/p&gt;&lt;hr size=&quot;1&quot;&gt;&lt;p style=&quot;margin: 0px ; margin-left: 4px&quot;&gt;+ abstract createNotification(): Notifiable&lt;br&gt;&lt;/p&gt;" style="verticalAlign=top;align=left;overflow=fill;fontSize=12;fontFamily=Helvetica;html=1;fillColor=#F2CC8F;strokeColor=#E07A5F;fontColor=#393C56;" parent="WIyWlLk6GJQsqaUBKTNV-1" vertex="1"><mxGeometry x="240" y="270" width="226" height="50" as="geometry"/></mxCell></root></mxGraphModel></diagram><diagram id="uqIyOd3rMwFQJI-9v7X5" name="abstract-factory"><mxGraphModel dx="1142" dy="709" grid="1" gridSize="10" guides="1" tooltips="1" connect="1" arrows="1" fold="1" page="1" pageScale="1" pageWidth="850" pageHeight="1100" background="#F4F1DE" math="0" shadow="0"><root><mxCell id="-o8DdjZ31NZdbWj4wjs7-0"/><mxCell id="-o8DdjZ31NZdbWj4wjs7-1" parent="-o8DdjZ31NZdbWj4wjs7-0"/><mxCell id="-o8DdjZ31NZdbWj4wjs7-14" value="implements" style="edgeStyle=orthogonalEdgeStyle;rounded=0;orthogonalLoop=1;jettySize=auto;html=1;entryX=0.37;entryY=0.953;entryDx=0;entryDy=0;entryPerimeter=0;strokeWidth=2;labelBackgroundColor=#F4F1DE;strokeColor=#E07A5F;fontColor=#393C56;" parent="-o8DdjZ31NZdbWj4wjs7-1" source="-o8DdjZ31NZdbWj4wjs7-2" target="-o8DdjZ31NZdbWj4wjs7-11" edge="1"><mxGeometry x="0.2969" relative="1" as="geometry"><Array as="points"><mxPoint x="449" y="350"/></Array><mxPoint as="offset"/></mxGeometry></mxCell><mxCell id="-o8DdjZ31NZdbWj4wjs7-15" value="implements" style="edgeStyle=orthogonalEdgeStyle;rounded=0;orthogonalLoop=1;jettySize=auto;html=1;entryX=0.633;entryY=0.962;entryDx=0;entryDy=0;entryPerimeter=0;strokeWidth=2;labelBackgroundColor=#F4F1DE;strokeColor=#E07A5F;fontColor=#393C56;" parent="-o8DdjZ31NZdbWj4wjs7-1" source="-o8DdjZ31NZdbWj4wjs7-2" target="-o8DdjZ31NZdbWj4wjs7-13" edge="1"><mxGeometry x="0.2402" relative="1" as="geometry"><mxPoint x="740" y="280" as="targetPoint"/><Array as="points"><mxPoint x="741" y="355"/></Array><mxPoint as="offset"/></mxGeometry></mxCell><mxCell id="-o8DdjZ31NZdbWj4wjs7-2" value="&lt;p style=&quot;margin: 0px ; margin-top: 4px ; text-align: center&quot;&gt;&lt;i&gt;&amp;lt;&amp;lt;Interface&amp;gt;&amp;gt;&lt;/i&gt;&lt;br&gt;&lt;/p&gt;&lt;p style=&quot;margin: 0px ; margin-top: 4px ; text-align: center&quot;&gt;&lt;b&gt;&lt;i&gt;IButton&lt;/i&gt;&lt;/b&gt;&lt;/p&gt;&lt;hr size=&quot;1&quot;&gt;&lt;p style=&quot;margin: 0px ; margin-left: 4px&quot;&gt;+ render() : void&lt;/p&gt;" style="verticalAlign=top;align=left;overflow=fill;fontSize=12;fontFamily=Helvetica;html=1;fillColor=#F2CC8F;strokeColor=#E07A5F;fontColor=#393C56;" parent="-o8DdjZ31NZdbWj4wjs7-1" vertex="1"><mxGeometry x="510" y="320" width="190" height="70" as="geometry"/></mxCell><mxCell id="-o8DdjZ31NZdbWj4wjs7-3" value="&lt;p style=&quot;margin: 0px ; margin-top: 4px ; text-align: center&quot;&gt;&lt;i&gt;&amp;lt;&amp;lt;Interface&amp;gt;&amp;gt;&lt;/i&gt;&lt;br&gt;&lt;/p&gt;&lt;p style=&quot;margin: 0px ; margin-top: 4px ; text-align: center&quot;&gt;&lt;b&gt;&lt;i&gt;ICheckbox&lt;/i&gt;&lt;/b&gt;&lt;/p&gt;&lt;hr size=&quot;1&quot;&gt;&lt;p style=&quot;margin: 0px ; margin-left: 4px&quot;&gt;+ render() : void&lt;/p&gt;" style="verticalAlign=top;align=left;overflow=fill;fontSize=12;fontFamily=Helvetica;html=1;fillColor=#F2CC8F;strokeColor=#E07A5F;fontColor=#393C56;" parent="-o8DdjZ31NZdbWj4wjs7-1" vertex="1"><mxGeometry x="510" y="420" width="190" height="70" as="geometry"/></mxCell><mxCell id="-o8DdjZ31NZdbWj4wjs7-8" value="IOSButton" style="swimlane;fontStyle=1;align=center;verticalAlign=top;childLayout=stackLayout;horizontal=1;startSize=26;horizontalStack=0;resizeParent=1;resizeParentMax=0;resizeLast=0;collapsible=1;marginBottom=0;fillColor=#F2CC8F;strokeColor=#E07A5F;fontColor=#393C56;" parent="-o8DdjZ31NZdbWj4wjs7-1" vertex="1"><mxGeometry x="390" y="220" width="160" height="52" as="geometry"/></mxCell><mxCell id="-o8DdjZ31NZdbWj4wjs7-11" value="+ render() : void" style="text;strokeColor=none;fillColor=none;align=left;verticalAlign=top;spacingLeft=4;spacingRight=4;overflow=hidden;rotatable=0;points=[[0,0.5],[1,0.5]];portConstraint=eastwest;fontColor=#393C56;" parent="-o8DdjZ31NZdbWj4wjs7-8" vertex="1"><mxGeometry y="26" width="160" height="26" as="geometry"/></mxCell><mxCell id="-o8DdjZ31NZdbWj4wjs7-12" value="MaterialButton" style="swimlane;fontStyle=1;align=center;verticalAlign=top;childLayout=stackLayout;horizontal=1;startSize=26;horizontalStack=0;resizeParent=1;resizeParentMax=0;resizeLast=0;collapsible=1;marginBottom=0;fillColor=#F2CC8F;strokeColor=#E07A5F;fontColor=#393C56;" parent="-o8DdjZ31NZdbWj4wjs7-1" vertex="1"><mxGeometry x="640" y="220" width="160" height="52" as="geometry"/></mxCell><mxCell id="-o8DdjZ31NZdbWj4wjs7-13" value="+ render() : void" style="text;strokeColor=none;fillColor=none;align=left;verticalAlign=top;spacingLeft=4;spacingRight=4;overflow=hidden;rotatable=0;points=[[0,0.5],[1,0.5]];portConstraint=eastwest;fontColor=#393C56;" parent="-o8DdjZ31NZdbWj4wjs7-12" vertex="1"><mxGeometry y="26" width="160" height="26" as="geometry"/></mxCell><mxCell id="-o8DdjZ31NZdbWj4wjs7-19" value="implements" style="edgeStyle=orthogonalEdgeStyle;rounded=0;orthogonalLoop=1;jettySize=auto;html=1;entryX=0;entryY=0.571;entryDx=0;entryDy=0;entryPerimeter=0;strokeWidth=2;labelBackgroundColor=#F4F1DE;strokeColor=#E07A5F;fontColor=#393C56;" parent="-o8DdjZ31NZdbWj4wjs7-1" source="-o8DdjZ31NZdbWj4wjs7-17" target="-o8DdjZ31NZdbWj4wjs7-3" edge="1"><mxGeometry x="-0.3845" relative="1" as="geometry"><Array as="points"><mxPoint x="440" y="460"/></Array><mxPoint as="offset"/></mxGeometry></mxCell><mxCell id="-o8DdjZ31NZdbWj4wjs7-17" value="IOSCheckbox" style="swimlane;fontStyle=1;align=center;verticalAlign=top;childLayout=stackLayout;horizontal=1;startSize=26;horizontalStack=0;resizeParent=1;resizeParentMax=0;resizeLast=0;collapsible=1;marginBottom=0;fillColor=#F2CC8F;strokeColor=#E07A5F;fontColor=#393C56;" parent="-o8DdjZ31NZdbWj4wjs7-1" vertex="1"><mxGeometry x="380" y="520" width="160" height="52" as="geometry"/></mxCell><mxCell id="-o8DdjZ31NZdbWj4wjs7-18" value="+ render() : void" style="text;strokeColor=none;fillColor=none;align=left;verticalAlign=top;spacingLeft=4;spacingRight=4;overflow=hidden;rotatable=0;points=[[0,0.5],[1,0.5]];portConstraint=eastwest;fontColor=#393C56;" parent="-o8DdjZ31NZdbWj4wjs7-17" vertex="1"><mxGeometry y="26" width="160" height="26" as="geometry"/></mxCell><mxCell id="-o8DdjZ31NZdbWj4wjs7-22" value="implements" style="edgeStyle=orthogonalEdgeStyle;rounded=0;orthogonalLoop=1;jettySize=auto;html=1;entryX=1;entryY=0.571;entryDx=0;entryDy=0;entryPerimeter=0;strokeWidth=2;labelBackgroundColor=#F4F1DE;strokeColor=#E07A5F;fontColor=#393C56;" parent="-o8DdjZ31NZdbWj4wjs7-1" source="-o8DdjZ31NZdbWj4wjs7-20" target="-o8DdjZ31NZdbWj4wjs7-3" edge="1"><mxGeometry x="-0.1667" relative="1" as="geometry"><mxPoint as="offset"/></mxGeometry></mxCell><mxCell id="-o8DdjZ31NZdbWj4wjs7-20" value="MaterialCheckbox" style="swimlane;fontStyle=1;align=center;verticalAlign=top;childLayout=stackLayout;horizontal=1;startSize=26;horizontalStack=0;resizeParent=1;resizeParentMax=0;resizeLast=0;collapsible=1;marginBottom=0;fillColor=#F2CC8F;strokeColor=#E07A5F;fontColor=#393C56;" parent="-o8DdjZ31NZdbWj4wjs7-1" vertex="1"><mxGeometry x="650" y="520" width="160" height="52" as="geometry"/></mxCell><mxCell id="-o8DdjZ31NZdbWj4wjs7-21" value="+ render() : void" style="text;strokeColor=none;fillColor=none;align=left;verticalAlign=top;spacingLeft=4;spacingRight=4;overflow=hidden;rotatable=0;points=[[0,0.5],[1,0.5]];portConstraint=eastwest;fontColor=#393C56;" parent="-o8DdjZ31NZdbWj4wjs7-20" vertex="1"><mxGeometry y="26" width="160" height="26" as="geometry"/></mxCell><mxCell id="-o8DdjZ31NZdbWj4wjs7-28" style="edgeStyle=orthogonalEdgeStyle;rounded=0;orthogonalLoop=1;jettySize=auto;html=1;entryX=0.5;entryY=1;entryDx=0;entryDy=0;dashed=1;strokeWidth=2;labelBackgroundColor=#F4F1DE;strokeColor=#E07A5F;fontColor=#393C56;" parent="-o8DdjZ31NZdbWj4wjs7-1" source="-o8DdjZ31NZdbWj4wjs7-23" target="-o8DdjZ31NZdbWj4wjs7-25" edge="1"><mxGeometry relative="1" as="geometry"/></mxCell><mxCell id="-o8DdjZ31NZdbWj4wjs7-29" style="edgeStyle=orthogonalEdgeStyle;rounded=0;orthogonalLoop=1;jettySize=auto;html=1;entryX=0.5;entryY=0;entryDx=0;entryDy=0;dashed=1;strokeWidth=2;labelBackgroundColor=#F4F1DE;strokeColor=#E07A5F;fontColor=#393C56;" parent="-o8DdjZ31NZdbWj4wjs7-1" source="-o8DdjZ31NZdbWj4wjs7-23" target="-o8DdjZ31NZdbWj4wjs7-24" edge="1"><mxGeometry relative="1" as="geometry"/></mxCell><mxCell id="-o8DdjZ31NZdbWj4wjs7-23" value="&lt;p style=&quot;margin: 0px ; margin-top: 4px ; text-align: center&quot;&gt;&lt;i&gt;&amp;lt;&amp;lt;Interface&amp;gt;&amp;gt;&lt;/i&gt;&lt;br&gt;&lt;b&gt;UIFactory&lt;/b&gt;&lt;/p&gt;&lt;hr size=&quot;1&quot;&gt;&lt;p style=&quot;margin: 0px ; margin-left: 4px&quot;&gt;+ createButton() : IButton&lt;/p&gt;&lt;p style=&quot;margin: 0px ; margin-left: 4px&quot;&gt;+ createCheckbox() : ICheckbox&lt;/p&gt;" style="verticalAlign=top;align=left;overflow=fill;fontSize=12;fontFamily=Helvetica;html=1;fillColor=#F2CC8F;strokeColor=#E07A5F;fontColor=#393C56;" parent="-o8DdjZ31NZdbWj4wjs7-1" vertex="1"><mxGeometry x="910" y="350" width="190" height="90" as="geometry"/></mxCell><mxCell id="-o8DdjZ31NZdbWj4wjs7-30" style="edgeStyle=orthogonalEdgeStyle;rounded=0;orthogonalLoop=1;jettySize=auto;html=1;entryX=0.385;entryY=1.019;entryDx=0;entryDy=0;entryPerimeter=0;dashed=1;fillColor=#F2CC8F;strokeColor=#E07A5F;strokeWidth=2;labelBackgroundColor=#F4F1DE;fontColor=#393C56;" parent="-o8DdjZ31NZdbWj4wjs7-1" source="-o8DdjZ31NZdbWj4wjs7-24" target="-o8DdjZ31NZdbWj4wjs7-18" edge="1"><mxGeometry relative="1" as="geometry"><Array as="points"><mxPoint x="1005" y="640"/><mxPoint x="442" y="640"/></Array></mxGeometry></mxCell><mxCell id="-o8DdjZ31NZdbWj4wjs7-32" style="edgeStyle=orthogonalEdgeStyle;rounded=0;orthogonalLoop=1;jettySize=auto;html=1;dashed=1;entryX=0.458;entryY=-0.016;entryDx=0;entryDy=0;entryPerimeter=0;fillColor=#F2CC8F;strokeColor=#E07A5F;strokeWidth=2;labelBackgroundColor=#F4F1DE;fontColor=#393C56;" parent="-o8DdjZ31NZdbWj4wjs7-1" source="-o8DdjZ31NZdbWj4wjs7-24" target="-o8DdjZ31NZdbWj4wjs7-8" edge="1"><mxGeometry relative="1" as="geometry"><mxPoint x="1150" y="140" as="targetPoint"/><Array as="points"><mxPoint x="1140" y="546"/><mxPoint x="1140" y="140"/><mxPoint x="463" y="140"/></Array></mxGeometry></mxCell><mxCell id="-o8DdjZ31NZdbWj4wjs7-24" value="&lt;p style=&quot;margin: 0px ; margin-top: 4px ; text-align: center&quot;&gt;&lt;i&gt;&amp;lt;&amp;lt;Interface&amp;gt;&amp;gt;&lt;/i&gt;&lt;br&gt;&lt;b&gt;IOSFactory&lt;/b&gt;&lt;/p&gt;&lt;hr size=&quot;1&quot;&gt;&lt;p style=&quot;margin: 0px ; margin-left: 4px&quot;&gt;+ createButton() : IButton&lt;/p&gt;&lt;p style=&quot;margin: 0px ; margin-left: 4px&quot;&gt;+ createCheckbox() : ICheckbox&lt;/p&gt;" style="verticalAlign=top;align=left;overflow=fill;fontSize=12;fontFamily=Helvetica;html=1;fillColor=#F2CC8F;strokeColor=#E07A5F;fontColor=#393C56;" parent="-o8DdjZ31NZdbWj4wjs7-1" vertex="1"><mxGeometry x="910" y="501" width="190" height="90" as="geometry"/></mxCell><mxCell id="-o8DdjZ31NZdbWj4wjs7-26" style="edgeStyle=orthogonalEdgeStyle;rounded=0;orthogonalLoop=1;jettySize=auto;html=1;entryX=0.5;entryY=0;entryDx=0;entryDy=0;dashed=1;fillColor=#F2CC8F;strokeColor=#E07A5F;strokeWidth=2;labelBackgroundColor=#F4F1DE;fontColor=#393C56;" parent="-o8DdjZ31NZdbWj4wjs7-1" source="-o8DdjZ31NZdbWj4wjs7-25" target="-o8DdjZ31NZdbWj4wjs7-12" edge="1"><mxGeometry relative="1" as="geometry"><Array as="points"><mxPoint x="1005" y="170"/><mxPoint x="720" y="170"/></Array></mxGeometry></mxCell><mxCell id="-o8DdjZ31NZdbWj4wjs7-27" style="edgeStyle=orthogonalEdgeStyle;rounded=0;orthogonalLoop=1;jettySize=auto;html=1;entryX=1.016;entryY=0.186;entryDx=0;entryDy=0;entryPerimeter=0;dashed=1;fillColor=#F2CC8F;strokeColor=#E07A5F;strokeWidth=2;labelBackgroundColor=#F4F1DE;fontColor=#393C56;" parent="-o8DdjZ31NZdbWj4wjs7-1" source="-o8DdjZ31NZdbWj4wjs7-25" target="-o8DdjZ31NZdbWj4wjs7-21" edge="1"><mxGeometry relative="1" as="geometry"><Array as="points"><mxPoint x="860" y="246"/><mxPoint x="860" y="551"/></Array></mxGeometry></mxCell><mxCell id="-o8DdjZ31NZdbWj4wjs7-25" value="&lt;p style=&quot;margin: 0px ; margin-top: 4px ; text-align: center&quot;&gt;&lt;i&gt;&amp;lt;&amp;lt;Interface&amp;gt;&amp;gt;&lt;/i&gt;&lt;br&gt;&lt;b&gt;MaterialFactory&lt;/b&gt;&lt;/p&gt;&lt;hr size=&quot;1&quot;&gt;&lt;p style=&quot;margin: 0px ; margin-left: 4px&quot;&gt;+ createButton() : IButton&lt;/p&gt;&lt;p style=&quot;margin: 0px ; margin-left: 4px&quot;&gt;+ createCheckbox() : ICheckbox&lt;/p&gt;" style="verticalAlign=top;align=left;overflow=fill;fontSize=12;fontFamily=Helvetica;html=1;fillColor=#F2CC8F;strokeColor=#E07A5F;fontColor=#393C56;" parent="-o8DdjZ31NZdbWj4wjs7-1" vertex="1"><mxGeometry x="910" y="201" width="190" height="90" as="geometry"/></mxCell><mxCell id="-o8DdjZ31NZdbWj4wjs7-39" style="edgeStyle=orthogonalEdgeStyle;rounded=0;orthogonalLoop=1;jettySize=auto;html=1;entryX=1;entryY=0.5;entryDx=0;entryDy=0;strokeWidth=2;labelBackgroundColor=#F4F1DE;strokeColor=#E07A5F;fontColor=#393C56;" parent="-o8DdjZ31NZdbWj4wjs7-1" source="-o8DdjZ31NZdbWj4wjs7-38" target="-o8DdjZ31NZdbWj4wjs7-23" edge="1"><mxGeometry relative="1" as="geometry"/></mxCell><mxCell id="-o8DdjZ31NZdbWj4wjs7-38" value="&lt;p style=&quot;margin: 0px ; margin-top: 4px ; text-align: center&quot;&gt;&lt;b&gt;MobileApplication&lt;/b&gt;&lt;/p&gt;&lt;hr size=&quot;1&quot;&gt;&lt;p style=&quot;margin: 0px ; margin-left: 4px&quot;&gt;+ factory : UIFactory&lt;/p&gt;&lt;hr size=&quot;1&quot;&gt;&lt;p style=&quot;margin: 0px ; margin-left: 4px&quot;&gt;+ MobileApplication(UIFactory)&lt;/p&gt;&lt;p style=&quot;margin: 0px ; margin-left: 4px&quot;&gt;+ render() : void&lt;/p&gt;" style="verticalAlign=top;align=left;overflow=fill;fontSize=12;fontFamily=Helvetica;html=1;fillColor=#F2CC8F;strokeColor=#E07A5F;fontColor=#393C56;" parent="-o8DdjZ31NZdbWj4wjs7-1" vertex="1"><mxGeometry x="1210" y="350" width="190" height="90" as="geometry"/></mxCell><mxCell id="Bt8MqIE3J2tMeCcnWgcc-0" value="Abstract Factory Pattern" style="text;html=1;strokeColor=none;fillColor=none;align=center;verticalAlign=middle;whiteSpace=wrap;rounded=0;strokeWidth=110;fontSize=25;fontStyle=3;fontColor=#393C56;" parent="-o8DdjZ31NZdbWj4wjs7-1" vertex="1"><mxGeometry x="700" y="80" width="220" height="20" as="geometry"/></mxCell></root></mxGraphModel></diagram><diagram id="UUew9wkR1XBxSG06YJV6" name="builder"><mxGraphModel dx="1142" dy="709" grid="1" gridSize="10" guides="1" tooltips="1" connect="1" arrows="1" fold="1" page="1" pageScale="1" pageWidth="850" pageHeight="1100" background="#F4F1DE" math="0" shadow="0"><root><mxCell id="K8AQ4UUt9L5lkQaSnExd-0"/><mxCell id="K8AQ4UUt9L5lkQaSnExd-1" parent="K8AQ4UUt9L5lkQaSnExd-0"/><mxCell id="pONkeYu0zIjSUaKlVw8a-14" value="implements" style="edgeStyle=orthogonalEdgeStyle;rounded=0;orthogonalLoop=1;jettySize=auto;html=1;entryX=0.5;entryY=1;entryDx=0;entryDy=0;dashed=1;labelBackgroundColor=#F4F1DE;strokeColor=#E07A5F;fontColor=#393C56;" parent="K8AQ4UUt9L5lkQaSnExd-1" source="K8AQ4UUt9L5lkQaSnExd-11" target="K8AQ4UUt9L5lkQaSnExd-27" edge="1"><mxGeometry relative="1" as="geometry"/></mxCell><mxCell id="K8AQ4UUt9L5lkQaSnExd-11" value="FamilyCarBuilder" style="swimlane;fontStyle=1;childLayout=stackLayout;horizontal=1;startSize=26;fillColor=none;horizontalStack=0;resizeParent=1;resizeParentMax=0;resizeLast=0;collapsible=1;marginBottom=0;strokeColor=#E07A5F;fontColor=#393C56;" parent="K8AQ4UUt9L5lkQaSnExd-1" vertex="1"><mxGeometry x="340" y="250" width="230" height="266" as="geometry"/></mxCell><mxCell id="K8AQ4UUt9L5lkQaSnExd-12" value="+ engine: Engine" style="text;strokeColor=none;fillColor=none;align=left;verticalAlign=top;spacingLeft=4;spacingRight=4;overflow=hidden;rotatable=0;points=[[0,0.5],[1,0.5]];portConstraint=eastwest;fontColor=#393C56;" parent="K8AQ4UUt9L5lkQaSnExd-11" vertex="1"><mxGeometry y="26" width="230" height="26" as="geometry"/></mxCell><mxCell id="K8AQ4UUt9L5lkQaSnExd-13" value="+ doorsNumber: int" style="text;strokeColor=none;fillColor=none;align=left;verticalAlign=top;spacingLeft=4;spacingRight=4;overflow=hidden;rotatable=0;points=[[0,0.5],[1,0.5]];portConstraint=eastwest;fontColor=#393C56;" parent="K8AQ4UUt9L5lkQaSnExd-11" vertex="1"><mxGeometry y="52" width="230" height="26" as="geometry"/></mxCell><mxCell id="K8AQ4UUt9L5lkQaSnExd-14" value="+ transmission: Transmission" style="text;strokeColor=none;fillColor=none;align=left;verticalAlign=top;spacingLeft=4;spacingRight=4;overflow=hidden;rotatable=0;points=[[0,0.5],[1,0.5]];portConstraint=eastwest;fontColor=#393C56;" parent="K8AQ4UUt9L5lkQaSnExd-11" vertex="1"><mxGeometry y="78" width="230" height="26" as="geometry"/></mxCell><mxCell id="K8AQ4UUt9L5lkQaSnExd-15" value="+ carType: Type" style="text;strokeColor=none;fillColor=none;align=left;verticalAlign=top;spacingLeft=4;spacingRight=4;overflow=hidden;rotatable=0;points=[[0,0.5],[1,0.5]];portConstraint=eastwest;fontColor=#393C56;" parent="K8AQ4UUt9L5lkQaSnExd-11" vertex="1"><mxGeometry y="104" width="230" height="26" as="geometry"/></mxCell><mxCell id="K8AQ4UUt9L5lkQaSnExd-19" value="" style="line;strokeWidth=1;fillColor=none;align=left;verticalAlign=middle;spacingTop=-1;spacingLeft=3;spacingRight=3;rotatable=0;labelPosition=right;points=[];portConstraint=eastwest;labelBackgroundColor=#F4F1DE;strokeColor=#E07A5F;fontColor=#393C56;" parent="K8AQ4UUt9L5lkQaSnExd-11" vertex="1"><mxGeometry y="130" width="230" height="8" as="geometry"/></mxCell><mxCell id="K8AQ4UUt9L5lkQaSnExd-20" value="+ setEngine(Engine): void" style="text;strokeColor=none;fillColor=none;align=left;verticalAlign=top;spacingLeft=4;spacingRight=4;overflow=hidden;rotatable=0;points=[[0,0.5],[1,0.5]];portConstraint=eastwest;fontColor=#393C56;" parent="K8AQ4UUt9L5lkQaSnExd-11" vertex="1"><mxGeometry y="138" width="230" height="26" as="geometry"/></mxCell><mxCell id="K8AQ4UUt9L5lkQaSnExd-21" value="+ setDoorsNumber(int): void" style="text;strokeColor=none;fillColor=none;align=left;verticalAlign=top;spacingLeft=4;spacingRight=4;overflow=hidden;rotatable=0;points=[[0,0.5],[1,0.5]];portConstraint=eastwest;fontColor=#393C56;" parent="K8AQ4UUt9L5lkQaSnExd-11" vertex="1"><mxGeometry y="164" width="230" height="26" as="geometry"/></mxCell><mxCell id="K8AQ4UUt9L5lkQaSnExd-22" value="+ setTransmission(Transmission): void" style="text;strokeColor=none;fillColor=none;align=left;verticalAlign=top;spacingLeft=4;spacingRight=4;overflow=hidden;rotatable=0;points=[[0,0.5],[1,0.5]];portConstraint=eastwest;fontColor=#393C56;" parent="K8AQ4UUt9L5lkQaSnExd-11" vertex="1"><mxGeometry y="190" width="230" height="26" as="geometry"/></mxCell><mxCell id="K8AQ4UUt9L5lkQaSnExd-24" value="+ setCarType(Type): void" style="text;strokeColor=none;fillColor=none;align=left;verticalAlign=top;spacingLeft=4;spacingRight=4;overflow=hidden;rotatable=0;points=[[0,0.5],[1,0.5]];portConstraint=eastwest;fontColor=#393C56;" parent="K8AQ4UUt9L5lkQaSnExd-11" vertex="1"><mxGeometry y="216" width="230" height="24" as="geometry"/></mxCell><mxCell id="K8AQ4UUt9L5lkQaSnExd-25" value="+ build(): FamilyCar" style="text;strokeColor=none;fillColor=none;align=left;verticalAlign=top;spacingLeft=4;spacingRight=4;overflow=hidden;rotatable=0;points=[[0,0.5],[1,0.5]];portConstraint=eastwest;fontColor=#393C56;" parent="K8AQ4UUt9L5lkQaSnExd-11" vertex="1"><mxGeometry y="240" width="230" height="26" as="geometry"/></mxCell><mxCell id="K8AQ4UUt9L5lkQaSnExd-16" value="" style="text;strokeColor=none;fillColor=none;align=left;verticalAlign=middle;spacingTop=-1;spacingLeft=4;spacingRight=4;rotatable=0;labelPosition=right;points=[];portConstraint=eastwest;fontColor=#393C56;" parent="K8AQ4UUt9L5lkQaSnExd-1" vertex="1"><mxGeometry x="480" y="300" width="20" height="14" as="geometry"/></mxCell><mxCell id="K8AQ4UUt9L5lkQaSnExd-17" value="" style="text;strokeColor=none;fillColor=none;align=left;verticalAlign=middle;spacingTop=-1;spacingLeft=4;spacingRight=4;rotatable=0;labelPosition=right;points=[];portConstraint=eastwest;fontColor=#393C56;" parent="K8AQ4UUt9L5lkQaSnExd-1" vertex="1"><mxGeometry x="480" y="300" width="20" height="14" as="geometry"/></mxCell><mxCell id="K8AQ4UUt9L5lkQaSnExd-27" value="&lt;p style=&quot;margin: 0px ; margin-top: 4px ; text-align: center&quot;&gt;&lt;i&gt;&amp;lt;&amp;lt;Interface&amp;gt;&amp;gt;&lt;/i&gt;&lt;br&gt;&lt;b&gt;ICarBuilder&lt;/b&gt;&lt;/p&gt;&lt;p style=&quot;margin: 0px ; margin-left: 4px&quot;&gt;&lt;span&gt;&lt;br&gt;&lt;/span&gt;&lt;/p&gt;&lt;p style=&quot;margin: 0px ; margin-left: 4px&quot;&gt;&lt;span&gt;+ setEngine(Engine): void&lt;/span&gt;&lt;br&gt;&lt;/p&gt;&lt;p style=&quot;margin: 0px ; margin-left: 4px&quot;&gt;+ setDoorsNumber(int): void&lt;/p&gt;&lt;p style=&quot;margin: 0px ; margin-left: 4px&quot;&gt;+ setTransmission(Transmission): void&lt;/p&gt;&lt;p style=&quot;margin: 0px ; margin-left: 4px&quot;&gt;+ setCarType(Type): void&lt;/p&gt;&lt;p style=&quot;margin: 0px ; margin-left: 4px&quot;&gt;+ create(): void&lt;/p&gt;" style="verticalAlign=top;align=left;overflow=fill;fontSize=12;fontFamily=Helvetica;html=1;fillColor=#F2CC8F;strokeColor=#E07A5F;fontColor=#393C56;" parent="K8AQ4UUt9L5lkQaSnExd-1" vertex="1"><mxGeometry x="179" y="41" width="221" height="129" as="geometry"/></mxCell><mxCell id="47ty5sPvBBeUjQjCfkm8-0" value="" style="line;strokeWidth=1;fillColor=none;align=left;verticalAlign=middle;spacingTop=-1;spacingLeft=3;spacingRight=3;rotatable=0;labelPosition=right;points=[];portConstraint=eastwest;labelBackgroundColor=#F4F1DE;strokeColor=#E07A5F;fontColor=#393C56;" parent="K8AQ4UUt9L5lkQaSnExd-1" vertex="1"><mxGeometry x="179" y="70" width="221" height="8" as="geometry"/></mxCell><mxCell id="pONkeYu0zIjSUaKlVw8a-23" style="edgeStyle=orthogonalEdgeStyle;rounded=0;orthogonalLoop=1;jettySize=auto;html=1;entryX=1;entryY=0.5;entryDx=0;entryDy=0;dashed=1;labelBackgroundColor=#F4F1DE;strokeColor=#E07A5F;fontColor=#393C56;" parent="K8AQ4UUt9L5lkQaSnExd-1" source="47ty5sPvBBeUjQjCfkm8-17" target="K8AQ4UUt9L5lkQaSnExd-27" edge="1"><mxGeometry relative="1" as="geometry"/></mxCell><mxCell id="47ty5sPvBBeUjQjCfkm8-17" value="Director" style="swimlane;fontStyle=1;align=center;verticalAlign=top;childLayout=stackLayout;horizontal=1;startSize=26;horizontalStack=0;resizeParent=1;resizeParentMax=0;resizeLast=0;collapsible=1;marginBottom=0;fillColor=#F2CC8F;strokeColor=#E07A5F;fontColor=#393C56;" parent="K8AQ4UUt9L5lkQaSnExd-1" vertex="1"><mxGeometry x="590" y="130" width="240" height="70" as="geometry"/></mxCell><mxCell id="47ty5sPvBBeUjQjCfkm8-20" value="+ buildSportsCar(ICarBuilder): SportsCar&#10;+ buildFamilyCar(ICarBuilder): FamilyCar" style="text;strokeColor=none;fillColor=none;align=left;verticalAlign=top;spacingLeft=4;spacingRight=4;overflow=hidden;rotatable=0;points=[[0,0.5],[1,0.5]];portConstraint=eastwest;fontColor=#393C56;" parent="47ty5sPvBBeUjQjCfkm8-17" vertex="1"><mxGeometry y="26" width="240" height="44" as="geometry"/></mxCell><mxCell id="pONkeYu0zIjSUaKlVw8a-13" value="implements" style="edgeStyle=orthogonalEdgeStyle;rounded=0;orthogonalLoop=1;jettySize=auto;html=1;entryX=0.5;entryY=1;entryDx=0;entryDy=0;dashed=1;labelBackgroundColor=#F4F1DE;strokeColor=#E07A5F;fontColor=#393C56;" parent="K8AQ4UUt9L5lkQaSnExd-1" source="pONkeYu0zIjSUaKlVw8a-2" target="K8AQ4UUt9L5lkQaSnExd-27" edge="1"><mxGeometry relative="1" as="geometry"/></mxCell><mxCell id="pONkeYu0zIjSUaKlVw8a-2" value="SportsCarBuilder" style="swimlane;fontStyle=1;childLayout=stackLayout;horizontal=1;startSize=26;fillColor=none;horizontalStack=0;resizeParent=1;resizeParentMax=0;resizeLast=0;collapsible=1;marginBottom=0;strokeColor=#E07A5F;fontColor=#393C56;" parent="K8AQ4UUt9L5lkQaSnExd-1" vertex="1"><mxGeometry x="50" y="250" width="220" height="266" as="geometry"/></mxCell><mxCell id="pONkeYu0zIjSUaKlVw8a-3" value="+ engine: Engine" style="text;strokeColor=none;fillColor=none;align=left;verticalAlign=top;spacingLeft=4;spacingRight=4;overflow=hidden;rotatable=0;points=[[0,0.5],[1,0.5]];portConstraint=eastwest;fontColor=#393C56;" parent="pONkeYu0zIjSUaKlVw8a-2" vertex="1"><mxGeometry y="26" width="220" height="26" as="geometry"/></mxCell><mxCell id="pONkeYu0zIjSUaKlVw8a-4" value="+ doorsNumber: int" style="text;strokeColor=none;fillColor=none;align=left;verticalAlign=top;spacingLeft=4;spacingRight=4;overflow=hidden;rotatable=0;points=[[0,0.5],[1,0.5]];portConstraint=eastwest;fontColor=#393C56;" parent="pONkeYu0zIjSUaKlVw8a-2" vertex="1"><mxGeometry y="52" width="220" height="26" as="geometry"/></mxCell><mxCell id="pONkeYu0zIjSUaKlVw8a-5" value="+ transmission: Transmission" style="text;strokeColor=none;fillColor=none;align=left;verticalAlign=top;spacingLeft=4;spacingRight=4;overflow=hidden;rotatable=0;points=[[0,0.5],[1,0.5]];portConstraint=eastwest;fontColor=#393C56;" parent="pONkeYu0zIjSUaKlVw8a-2" vertex="1"><mxGeometry y="78" width="220" height="26" as="geometry"/></mxCell><mxCell id="pONkeYu0zIjSUaKlVw8a-6" value="+ carType: Type" style="text;strokeColor=none;fillColor=none;align=left;verticalAlign=top;spacingLeft=4;spacingRight=4;overflow=hidden;rotatable=0;points=[[0,0.5],[1,0.5]];portConstraint=eastwest;fontColor=#393C56;" parent="pONkeYu0zIjSUaKlVw8a-2" vertex="1"><mxGeometry y="104" width="220" height="26" as="geometry"/></mxCell><mxCell id="pONkeYu0zIjSUaKlVw8a-7" value="" style="line;strokeWidth=1;fillColor=none;align=left;verticalAlign=middle;spacingTop=-1;spacingLeft=3;spacingRight=3;rotatable=0;labelPosition=right;points=[];portConstraint=eastwest;labelBackgroundColor=#F4F1DE;strokeColor=#E07A5F;fontColor=#393C56;" parent="pONkeYu0zIjSUaKlVw8a-2" vertex="1"><mxGeometry y="130" width="220" height="8" as="geometry"/></mxCell><mxCell id="pONkeYu0zIjSUaKlVw8a-8" value="+ setEngine(Engine): void" style="text;strokeColor=none;fillColor=none;align=left;verticalAlign=top;spacingLeft=4;spacingRight=4;overflow=hidden;rotatable=0;points=[[0,0.5],[1,0.5]];portConstraint=eastwest;fontColor=#393C56;" parent="pONkeYu0zIjSUaKlVw8a-2" vertex="1"><mxGeometry y="138" width="220" height="26" as="geometry"/></mxCell><mxCell id="pONkeYu0zIjSUaKlVw8a-9" value="+ setDoorsNumber(int): void" style="text;strokeColor=none;fillColor=none;align=left;verticalAlign=top;spacingLeft=4;spacingRight=4;overflow=hidden;rotatable=0;points=[[0,0.5],[1,0.5]];portConstraint=eastwest;fontColor=#393C56;" parent="pONkeYu0zIjSUaKlVw8a-2" vertex="1"><mxGeometry y="164" width="220" height="26" as="geometry"/></mxCell><mxCell id="pONkeYu0zIjSUaKlVw8a-10" value="+ setTransmission(Transmission): void" style="text;strokeColor=none;fillColor=none;align=left;verticalAlign=top;spacingLeft=4;spacingRight=4;overflow=hidden;rotatable=0;points=[[0,0.5],[1,0.5]];portConstraint=eastwest;fontColor=#393C56;" parent="pONkeYu0zIjSUaKlVw8a-2" vertex="1"><mxGeometry y="190" width="220" height="26" as="geometry"/></mxCell><mxCell id="pONkeYu0zIjSUaKlVw8a-11" value="+ setCarType(Type): void" style="text;strokeColor=none;fillColor=none;align=left;verticalAlign=top;spacingLeft=4;spacingRight=4;overflow=hidden;rotatable=0;points=[[0,0.5],[1,0.5]];portConstraint=eastwest;fontColor=#393C56;" parent="pONkeYu0zIjSUaKlVw8a-2" vertex="1"><mxGeometry y="216" width="220" height="24" as="geometry"/></mxCell><mxCell id="pONkeYu0zIjSUaKlVw8a-12" value="+ build(): SportsCar" style="text;strokeColor=none;fillColor=none;align=left;verticalAlign=top;spacingLeft=4;spacingRight=4;overflow=hidden;rotatable=0;points=[[0,0.5],[1,0.5]];portConstraint=eastwest;fontColor=#393C56;" parent="pONkeYu0zIjSUaKlVw8a-2" vertex="1"><mxGeometry y="240" width="220" height="26" as="geometry"/></mxCell><mxCell id="pONkeYu0zIjSUaKlVw8a-16" style="edgeStyle=orthogonalEdgeStyle;rounded=0;orthogonalLoop=1;jettySize=auto;html=1;dashed=1;entryX=0.436;entryY=1.01;entryDx=0;entryDy=0;entryPerimeter=0;labelBackgroundColor=#F4F1DE;strokeColor=#E07A5F;fontColor=#393C56;" parent="K8AQ4UUt9L5lkQaSnExd-1" source="pONkeYu0zIjSUaKlVw8a-15" target="pONkeYu0zIjSUaKlVw8a-12" edge="1"><mxGeometry relative="1" as="geometry"><mxPoint x="124" y="530" as="targetPoint"/></mxGeometry></mxCell><mxCell id="pONkeYu0zIjSUaKlVw8a-15" value="SportsCar" style="html=1;fontStyle=1;fillColor=#F2CC8F;strokeColor=#E07A5F;fontColor=#393C56;" parent="K8AQ4UUt9L5lkQaSnExd-1" vertex="1"><mxGeometry x="69" y="570" width="110" height="50" as="geometry"/></mxCell><mxCell id="pONkeYu0zIjSUaKlVw8a-19" style="edgeStyle=orthogonalEdgeStyle;rounded=0;orthogonalLoop=1;jettySize=auto;html=1;entryX=0.5;entryY=1;entryDx=0;entryDy=0;dashed=1;labelBackgroundColor=#F4F1DE;strokeColor=#E07A5F;fontColor=#393C56;" parent="K8AQ4UUt9L5lkQaSnExd-1" source="pONkeYu0zIjSUaKlVw8a-17" target="K8AQ4UUt9L5lkQaSnExd-11" edge="1"><mxGeometry relative="1" as="geometry"/></mxCell><mxCell id="pONkeYu0zIjSUaKlVw8a-17" value="FamilyCar" style="html=1;fontStyle=1;fillColor=#F2CC8F;strokeColor=#E07A5F;fontColor=#393C56;" parent="K8AQ4UUt9L5lkQaSnExd-1" vertex="1"><mxGeometry x="369" y="570" width="110" height="50" as="geometry"/></mxCell><mxCell id="pONkeYu0zIjSUaKlVw8a-22" style="edgeStyle=orthogonalEdgeStyle;rounded=0;orthogonalLoop=1;jettySize=auto;html=1;entryX=0.5;entryY=0;entryDx=0;entryDy=0;dashed=1;labelBackgroundColor=#F4F1DE;strokeColor=#E07A5F;fontColor=#393C56;" parent="K8AQ4UUt9L5lkQaSnExd-1" source="pONkeYu0zIjSUaKlVw8a-21" target="47ty5sPvBBeUjQjCfkm8-17" edge="1"><mxGeometry relative="1" as="geometry"/></mxCell><mxCell id="pONkeYu0zIjSUaKlVw8a-21" value="&lt;b&gt;Client&lt;/b&gt;" style="html=1;fillColor=#F2CC8F;strokeColor=#E07A5F;fontColor=#393C56;" parent="K8AQ4UUt9L5lkQaSnExd-1" vertex="1"><mxGeometry x="655" y="41" width="110" height="50" as="geometry"/></mxCell></root></mxGraphModel></diagram><diagram id="ywAYsi20JodvMQOTLG9j" name="prototype"><mxGraphModel dx="1142" dy="709" grid="1" gridSize="10" guides="1" tooltips="1" connect="1" arrows="1" fold="1" page="1" pageScale="1" pageWidth="850" pageHeight="1100" background="#F4F1DE" math="0" shadow="0"><root><mxCell id="OXU-o9tlfHIPMtPgJBmX-0"/><mxCell id="OXU-o9tlfHIPMtPgJBmX-1" parent="OXU-o9tlfHIPMtPgJBmX-0"/><mxCell id="OXU-o9tlfHIPMtPgJBmX-2" value="&lt;p style=&quot;margin: 0px ; margin-top: 4px ; text-align: center&quot;&gt;&lt;i&gt;&amp;lt;&amp;lt;Interface&amp;gt;&amp;gt;&lt;/i&gt;&lt;br&gt;&lt;b&gt;Cloneable&lt;/b&gt;&lt;/p&gt;&lt;hr size=&quot;1&quot;&gt;&lt;p style=&quot;margin: 0px ; margin-left: 4px&quot;&gt;+ clone(): Cloneable&lt;/p&gt;" style="verticalAlign=top;align=left;overflow=fill;fontSize=12;fontFamily=Helvetica;html=1;fillColor=#F2CC8F;strokeColor=#E07A5F;fontColor=#393C56;" parent="OXU-o9tlfHIPMtPgJBmX-1" vertex="1"><mxGeometry x="260" y="100" width="190" height="70" as="geometry"/></mxCell><mxCell id="CsmHLEIbYjqGpaH2NdqO-3" value="extends" style="edgeStyle=orthogonalEdgeStyle;rounded=0;orthogonalLoop=1;jettySize=auto;html=1;entryX=0;entryY=0.5;entryDx=0;entryDy=0;labelBackgroundColor=#F4F1DE;strokeColor=#E07A5F;fontColor=#393C56;" parent="OXU-o9tlfHIPMtPgJBmX-1" source="OXU-o9tlfHIPMtPgJBmX-3" target="CsmHLEIbYjqGpaH2NdqO-1" edge="1"><mxGeometry relative="1" as="geometry"/></mxCell><mxCell id="OXU-o9tlfHIPMtPgJBmX-3" value="&lt;p style=&quot;margin: 0px ; margin-top: 4px ; text-align: center&quot;&gt;&lt;b&gt;Invoice&lt;/b&gt;&lt;/p&gt;&lt;hr size=&quot;1&quot;&gt;&lt;p style=&quot;margin: 0px ; margin-left: 4px&quot;&gt;+ clone(): Cloneable&lt;/p&gt;&lt;p style=&quot;margin: 0px ; margin-left: 4px&quot;&gt;&lt;br&gt;&lt;/p&gt;" style="verticalAlign=top;align=left;overflow=fill;fontSize=12;fontFamily=Helvetica;html=1;fillColor=#F2CC8F;strokeColor=#E07A5F;fontColor=#393C56;" parent="OXU-o9tlfHIPMtPgJBmX-1" vertex="1"><mxGeometry x="140" y="380" width="160" height="50" as="geometry"/></mxCell><mxCell id="OXU-o9tlfHIPMtPgJBmX-5" style="edgeStyle=orthogonalEdgeStyle;rounded=0;orthogonalLoop=1;jettySize=auto;html=1;exitX=0.5;exitY=1;exitDx=0;exitDy=0;labelBackgroundColor=#F4F1DE;strokeColor=#E07A5F;fontColor=#393C56;" parent="OXU-o9tlfHIPMtPgJBmX-1" source="OXU-o9tlfHIPMtPgJBmX-3" target="OXU-o9tlfHIPMtPgJBmX-3" edge="1"><mxGeometry relative="1" as="geometry"/></mxCell><mxCell id="OXU-o9tlfHIPMtPgJBmX-7" style="edgeStyle=orthogonalEdgeStyle;rounded=0;orthogonalLoop=1;jettySize=auto;html=1;entryX=1;entryY=0.5;entryDx=0;entryDy=0;labelBackgroundColor=#F4F1DE;strokeColor=#E07A5F;fontColor=#393C56;" parent="OXU-o9tlfHIPMtPgJBmX-1" source="OXU-o9tlfHIPMtPgJBmX-6" target="OXU-o9tlfHIPMtPgJBmX-2" edge="1"><mxGeometry relative="1" as="geometry"/></mxCell><mxCell id="OXU-o9tlfHIPMtPgJBmX-6" value="Client" style="html=1;fillColor=#F2CC8F;strokeColor=#E07A5F;fontColor=#393C56;" parent="OXU-o9tlfHIPMtPgJBmX-1" vertex="1"><mxGeometry x="570" y="110" width="110" height="50" as="geometry"/></mxCell><mxCell id="CsmHLEIbYjqGpaH2NdqO-4" value="extends" style="edgeStyle=orthogonalEdgeStyle;rounded=0;orthogonalLoop=1;jettySize=auto;html=1;entryX=1;entryY=0.5;entryDx=0;entryDy=0;labelBackgroundColor=#F4F1DE;strokeColor=#E07A5F;fontColor=#393C56;" parent="OXU-o9tlfHIPMtPgJBmX-1" source="OXU-o9tlfHIPMtPgJBmX-8" target="CsmHLEIbYjqGpaH2NdqO-1" edge="1"><mxGeometry relative="1" as="geometry"/></mxCell><mxCell id="OXU-o9tlfHIPMtPgJBmX-8" value="&lt;p style=&quot;margin: 0px ; margin-top: 4px ; text-align: center&quot;&gt;&lt;b&gt;Bill&lt;/b&gt;&lt;/p&gt;&lt;hr size=&quot;1&quot;&gt;&lt;p style=&quot;margin: 0px ; margin-left: 4px&quot;&gt;+ dueDate: Date&lt;br&gt;&lt;/p&gt;&lt;hr size=&quot;1&quot;&gt;&lt;p style=&quot;margin: 0px ; margin-left: 4px&quot;&gt;+ clone(): Cloneable&lt;/p&gt;" style="verticalAlign=top;align=left;overflow=fill;fontSize=12;fontFamily=Helvetica;html=1;fillColor=#F2CC8F;strokeColor=#E07A5F;fontColor=#393C56;" parent="OXU-o9tlfHIPMtPgJBmX-1" vertex="1"><mxGeometry x="420" y="380" width="160" height="80" as="geometry"/></mxCell><mxCell id="CsmHLEIbYjqGpaH2NdqO-2" value="implements" style="edgeStyle=orthogonalEdgeStyle;rounded=0;orthogonalLoop=1;jettySize=auto;html=1;entryX=0.5;entryY=1;entryDx=0;entryDy=0;labelBackgroundColor=#F4F1DE;strokeColor=#E07A5F;fontColor=#393C56;" parent="OXU-o9tlfHIPMtPgJBmX-1" source="CsmHLEIbYjqGpaH2NdqO-1" target="OXU-o9tlfHIPMtPgJBmX-2" edge="1"><mxGeometry relative="1" as="geometry"/></mxCell><mxCell id="CsmHLEIbYjqGpaH2NdqO-1" value="&lt;p style=&quot;margin: 0px ; margin-top: 4px ; text-align: center&quot;&gt;&lt;b&gt;Document&lt;/b&gt;&lt;/p&gt;&lt;hr size=&quot;1&quot;&gt;&lt;p style=&quot;margin: 0px ; margin-left: 4px&quot;&gt;+ id: int&lt;/p&gt;&lt;p style=&quot;margin: 0px ; margin-left: 4px&quot;&gt;+ client: String&lt;/p&gt;&lt;p style=&quot;margin: 0px ; margin-left: 4px&quot;&gt;+ value: double&lt;/p&gt;&lt;hr size=&quot;1&quot;&gt;&lt;p style=&quot;margin: 0px ; margin-left: 4px&quot;&gt;+ clone(): Cloneable&lt;/p&gt;&lt;p style=&quot;margin: 0px ; margin-left: 4px&quot;&gt;&lt;br&gt;&lt;/p&gt;" style="verticalAlign=top;align=left;overflow=fill;fontSize=12;fontFamily=Helvetica;html=1;fillColor=#F2CC8F;strokeColor=#E07A5F;fontColor=#393C56;" parent="OXU-o9tlfHIPMtPgJBmX-1" vertex="1"><mxGeometry x="275" y="240" width="160" height="110" as="geometry"/></mxCell></root></mxGraphModel></diagram><diagram id="aOyf7GxLX_h93a-zuYRm" name="adapter"><mxGraphModel dx="1007" dy="709" grid="1" gridSize="10" guides="1" tooltips="1" connect="1" arrows="1" fold="1" page="1" pageScale="1" pageWidth="850" pageHeight="1100" background="#F4F1DE" math="0" shadow="0"><root><mxCell id="nAiefJRs7X0UKrKm4X3R-0"/><mxCell id="nAiefJRs7X0UKrKm4X3R-1" parent="nAiefJRs7X0UKrKm4X3R-0"/><mxCell id="nAiefJRs7X0UKrKm4X3R-2" value="&lt;p style=&quot;margin: 0px ; margin-top: 4px ; text-align: center&quot;&gt;&lt;b&gt;Square&lt;/b&gt;&lt;/p&gt;&lt;hr size=&quot;1&quot;&gt;&lt;p style=&quot;margin: 0px ; margin-left: 4px&quot;&gt;+ length: double&lt;/p&gt;&lt;hr size=&quot;1&quot;&gt;&lt;p style=&quot;margin: 0px ; margin-left: 4px&quot;&gt;+ Square(length)&lt;/p&gt;&lt;p style=&quot;margin: 0px ; margin-left: 4px&quot;&gt;+ getLength(): double&lt;/p&gt;&lt;p style=&quot;margin: 0px ; margin-left: 4px&quot;&gt;+ setLength(double): void&lt;/p&gt;" style="verticalAlign=top;align=left;overflow=fill;fontSize=12;fontFamily=Helvetica;html=1;fillColor=#F2CC8F;strokeColor=#E07A5F;fontColor=#393C56;" parent="nAiefJRs7X0UKrKm4X3R-1" vertex="1"><mxGeometry x="175" y="379.5" width="160" height="109" as="geometry"/></mxCell><mxCell id="nAiefJRs7X0UKrKm4X3R-3" value="&lt;p style=&quot;margin: 0px ; margin-top: 4px ; text-align: center&quot;&gt;&lt;b&gt;Cylinder&lt;/b&gt;&lt;/p&gt;&lt;hr size=&quot;1&quot;&gt;&lt;p style=&quot;margin: 0px ; margin-left: 4px&quot;&gt;+ diameter: double&lt;/p&gt;&lt;hr size=&quot;1&quot;&gt;&lt;p style=&quot;margin: 0px ; margin-left: 4px&quot;&gt;+ Cylinder(diameter)&lt;/p&gt;&lt;p style=&quot;margin: 0px ; margin-left: 4px&quot;&gt;+ getDiameter(): double&lt;/p&gt;&lt;p style=&quot;margin: 0px ; margin-left: 4px&quot;&gt;+ setDiameter(double): void&lt;/p&gt;" style="verticalAlign=top;align=left;overflow=fill;fontSize=12;fontFamily=Helvetica;html=1;fillColor=#F2CC8F;strokeColor=#E07A5F;fontColor=#393C56;" parent="nAiefJRs7X0UKrKm4X3R-1" vertex="1"><mxGeometry x="450" y="150" width="160" height="109" as="geometry"/></mxCell><mxCell id="nAiefJRs7X0UKrKm4X3R-10" style="edgeStyle=orthogonalEdgeStyle;rounded=0;orthogonalLoop=1;jettySize=auto;html=1;entryX=0;entryY=0.5;entryDx=0;entryDy=0;labelBackgroundColor=#F4F1DE;strokeColor=#E07A5F;fontColor=#393C56;" parent="nAiefJRs7X0UKrKm4X3R-1" source="nAiefJRs7X0UKrKm4X3R-4" target="nAiefJRs7X0UKrKm4X3R-3" edge="1"><mxGeometry relative="1" as="geometry"/></mxCell><mxCell id="nAiefJRs7X0UKrKm4X3R-4" value="&lt;p style=&quot;margin: 0px ; margin-top: 4px ; text-align: center&quot;&gt;&lt;b&gt;RoundHole&lt;/b&gt;&lt;/p&gt;&lt;hr size=&quot;1&quot;&gt;&lt;p style=&quot;margin: 0px ; margin-left: 4px&quot;&gt;+ diameter: double&lt;/p&gt;&lt;hr size=&quot;1&quot;&gt;&lt;p style=&quot;margin: 0px ; margin-left: 4px&quot;&gt;+ RoundHole(diameter)&lt;/p&gt;&lt;p style=&quot;margin: 0px ; margin-left: 4px&quot;&gt;+ getDiameter(): double&lt;/p&gt;&lt;p style=&quot;margin: 0px ; margin-left: 4px&quot;&gt;+ setDiameter(double): void&lt;/p&gt;&lt;p style=&quot;margin: 0px ; margin-left: 4px&quot;&gt;+ doesItFit(Cylinder): boolean&lt;/p&gt;" style="verticalAlign=top;align=left;overflow=fill;fontSize=12;fontFamily=Helvetica;html=1;fillColor=#F2CC8F;strokeColor=#E07A5F;fontColor=#393C56;" parent="nAiefJRs7X0UKrKm4X3R-1" vertex="1"><mxGeometry x="170" y="139" width="170" height="131" as="geometry"/></mxCell><mxCell id="nAiefJRs7X0UKrKm4X3R-6" value="extends" style="edgeStyle=orthogonalEdgeStyle;rounded=0;orthogonalLoop=1;jettySize=auto;html=1;entryX=0.5;entryY=1;entryDx=0;entryDy=0;labelBackgroundColor=#F4F1DE;strokeColor=#E07A5F;fontColor=#393C56;" parent="nAiefJRs7X0UKrKm4X3R-1" source="nAiefJRs7X0UKrKm4X3R-5" target="nAiefJRs7X0UKrKm4X3R-3" edge="1"><mxGeometry relative="1" as="geometry"/></mxCell><mxCell id="nAiefJRs7X0UKrKm4X3R-9" style="edgeStyle=orthogonalEdgeStyle;rounded=0;orthogonalLoop=1;jettySize=auto;html=1;entryX=1;entryY=0.5;entryDx=0;entryDy=0;labelBackgroundColor=#F4F1DE;strokeColor=#E07A5F;fontColor=#393C56;" parent="nAiefJRs7X0UKrKm4X3R-1" source="nAiefJRs7X0UKrKm4X3R-5" target="nAiefJRs7X0UKrKm4X3R-2" edge="1"><mxGeometry relative="1" as="geometry"/></mxCell><mxCell id="nAiefJRs7X0UKrKm4X3R-5" value="&lt;p style=&quot;margin: 0px ; margin-top: 4px ; text-align: center&quot;&gt;&lt;b&gt;SquareAdapter&lt;/b&gt;&lt;/p&gt;&lt;hr size=&quot;1&quot;&gt;&lt;p style=&quot;margin: 0px ; margin-left: 4px&quot;&gt;+ square: Square&lt;/p&gt;&lt;hr size=&quot;1&quot;&gt;&lt;p style=&quot;margin: 0px ; margin-left: 4px&quot;&gt;+ SquareAdapter(Square)&lt;/p&gt;&lt;p style=&quot;margin: 0px ; margin-left: 4px&quot;&gt;+ getSquare(): Square&lt;/p&gt;&lt;p style=&quot;margin: 0px ; margin-left: 4px&quot;&gt;+ setSquare(Square): void&lt;/p&gt;&lt;p style=&quot;margin: 0px ; margin-left: 4px&quot;&gt;+ getDiameter(): double&lt;/p&gt;" style="verticalAlign=top;align=left;overflow=fill;fontSize=12;fontFamily=Helvetica;html=1;fillColor=#F2CC8F;strokeColor=#E07A5F;fontColor=#393C56;" parent="nAiefJRs7X0UKrKm4X3R-1" vertex="1"><mxGeometry x="450" y="370" width="160" height="128" as="geometry"/></mxCell></root></mxGraphModel></diagram><diagram id="tmCcw49TwFPR5dvAUjVD" name="bridge"><mxGraphModel dx="1422" dy="762" grid="1" gridSize="10" guides="1" tooltips="1" connect="1" arrows="1" fold="1" page="1" pageScale="1" pageWidth="850" pageHeight="1100" background="#F4F1DE" math="0" shadow="0"><root><mxCell id="rwp5MIVAtEDC9UN3TwBV-0"/><mxCell id="rwp5MIVAtEDC9UN3TwBV-1" parent="rwp5MIVAtEDC9UN3TwBV-0"/><mxCell id="rwp5MIVAtEDC9UN3TwBV-13" style="edgeStyle=orthogonalEdgeStyle;rounded=0;orthogonalLoop=1;jettySize=auto;html=1;entryX=0;entryY=0.5;entryDx=0;entryDy=0;labelBackgroundColor=#F4F1DE;strokeColor=#E07A5F;fontColor=#393C56;" parent="rwp5MIVAtEDC9UN3TwBV-1" source="rwp5MIVAtEDC9UN3TwBV-2" target="rwp5MIVAtEDC9UN3TwBV-5" edge="1"><mxGeometry relative="1" as="geometry"/></mxCell><mxCell id="rwp5MIVAtEDC9UN3TwBV-2" value="&lt;p style=&quot;margin: 0px ; margin-top: 4px ; text-align: center&quot;&gt;&lt;b&gt;UIEngine&lt;/b&gt;&lt;/p&gt;&lt;hr size=&quot;1&quot;&gt;&lt;p style=&quot;margin: 0px ; margin-left: 4px&quot;&gt;+ window: Window&lt;/p&gt;&lt;hr size=&quot;1&quot;&gt;&lt;p style=&quot;margin: 0px ; margin-left: 4px&quot;&gt;+ UIEngine(OS)&lt;/p&gt;&lt;p style=&quot;margin: 0px ; margin-left: 4px&quot;&gt;+ renderWindow(): void&lt;/p&gt;&lt;p style=&quot;margin: 0px ; margin-left: 4px&quot;&gt;+ closeWindow(): void&lt;/p&gt;&lt;p style=&quot;margin: 0px ; margin-left: 4px&quot;&gt;+ makeFullScreen(): void&lt;/p&gt;" style="verticalAlign=top;align=left;overflow=fill;fontSize=12;fontFamily=Helvetica;html=1;fillColor=#F2CC8F;strokeColor=#E07A5F;fontColor=#393C56;" parent="rwp5MIVAtEDC9UN3TwBV-1" vertex="1"><mxGeometry x="160" y="220" width="160" height="120" as="geometry"/></mxCell><mxCell id="rwp5MIVAtEDC9UN3TwBV-5" value="&lt;p style=&quot;margin: 0px ; margin-top: 4px ; text-align: center&quot;&gt;&lt;i&gt;&amp;lt;&amp;lt;Interface&amp;gt;&amp;gt;&lt;/i&gt;&lt;br&gt;&lt;b&gt;Window&lt;/b&gt;&lt;/p&gt;&lt;hr size=&quot;1&quot;&gt;&lt;p style=&quot;margin: 0px ; margin-left: 4px&quot;&gt;+ render(): void&lt;/p&gt;&lt;p style=&quot;margin: 0px ; margin-left: 4px&quot;&gt;+ close(): void&lt;/p&gt;&lt;p style=&quot;margin: 0px ; margin-left: 4px&quot;&gt;+ makeFullScreen(): void&lt;/p&gt;" style="verticalAlign=top;align=left;overflow=fill;fontSize=12;fontFamily=Helvetica;html=1;fillColor=#F2CC8F;strokeColor=#E07A5F;fontColor=#393C56;" parent="rwp5MIVAtEDC9UN3TwBV-1" vertex="1"><mxGeometry x="450" y="230" width="190" height="100" as="geometry"/></mxCell><mxCell id="rwp5MIVAtEDC9UN3TwBV-12" style="edgeStyle=orthogonalEdgeStyle;rounded=0;orthogonalLoop=1;jettySize=auto;html=1;entryX=-0.005;entryY=0.63;entryDx=0;entryDy=0;entryPerimeter=0;labelBackgroundColor=#F4F1DE;strokeColor=#E07A5F;fontColor=#393C56;" parent="rwp5MIVAtEDC9UN3TwBV-1" source="rwp5MIVAtEDC9UN3TwBV-7" target="rwp5MIVAtEDC9UN3TwBV-5" edge="1"><mxGeometry relative="1" as="geometry"/></mxCell><mxCell id="rwp5MIVAtEDC9UN3TwBV-7" value="WindowsWindow" style="html=1;fillColor=#F2CC8F;strokeColor=#E07A5F;fontColor=#393C56;" parent="rwp5MIVAtEDC9UN3TwBV-1" vertex="1"><mxGeometry x="350" y="410" width="110" height="50" as="geometry"/></mxCell><mxCell id="rwp5MIVAtEDC9UN3TwBV-10" style="edgeStyle=orthogonalEdgeStyle;rounded=0;orthogonalLoop=1;jettySize=auto;html=1;entryX=0.563;entryY=1.03;entryDx=0;entryDy=0;entryPerimeter=0;labelBackgroundColor=#F4F1DE;strokeColor=#E07A5F;fontColor=#393C56;" parent="rwp5MIVAtEDC9UN3TwBV-1" source="rwp5MIVAtEDC9UN3TwBV-8" target="rwp5MIVAtEDC9UN3TwBV-5" edge="1"><mxGeometry relative="1" as="geometry"><Array as="points"><mxPoint x="555" y="370"/><mxPoint x="557" y="370"/></Array></mxGeometry></mxCell><mxCell id="rwp5MIVAtEDC9UN3TwBV-8" value="MacOsWindow" style="html=1;fillColor=#F2CC8F;strokeColor=#E07A5F;fontColor=#393C56;" parent="rwp5MIVAtEDC9UN3TwBV-1" vertex="1"><mxGeometry x="500" y="410" width="110" height="50" as="geometry"/></mxCell><mxCell id="rwp5MIVAtEDC9UN3TwBV-11" style="edgeStyle=orthogonalEdgeStyle;rounded=0;orthogonalLoop=1;jettySize=auto;html=1;entryX=1;entryY=0.5;entryDx=0;entryDy=0;labelBackgroundColor=#F4F1DE;strokeColor=#E07A5F;fontColor=#393C56;" parent="rwp5MIVAtEDC9UN3TwBV-1" source="rwp5MIVAtEDC9UN3TwBV-9" target="rwp5MIVAtEDC9UN3TwBV-5" edge="1"><mxGeometry relative="1" as="geometry"><Array as="points"><mxPoint x="700" y="280"/></Array></mxGeometry></mxCell><mxCell id="rwp5MIVAtEDC9UN3TwBV-9" value="LinuxWindow" style="html=1;fillColor=#F2CC8F;strokeColor=#E07A5F;fontColor=#393C56;" parent="rwp5MIVAtEDC9UN3TwBV-1" vertex="1"><mxGeometry x="650" y="410" width="110" height="50" as="geometry"/></mxCell><mxCell id="rwp5MIVAtEDC9UN3TwBV-15" style="edgeStyle=orthogonalEdgeStyle;rounded=0;orthogonalLoop=1;jettySize=auto;html=1;entryX=0.5;entryY=0;entryDx=0;entryDy=0;labelBackgroundColor=#F4F1DE;strokeColor=#E07A5F;fontColor=#393C56;" parent="rwp5MIVAtEDC9UN3TwBV-1" source="rwp5MIVAtEDC9UN3TwBV-14" target="rwp5MIVAtEDC9UN3TwBV-2" edge="1"><mxGeometry relative="1" as="geometry"/></mxCell><mxCell id="rwp5MIVAtEDC9UN3TwBV-14" value="Client" style="html=1;fillColor=#F2CC8F;strokeColor=#E07A5F;fontColor=#393C56;" parent="rwp5MIVAtEDC9UN3TwBV-1" vertex="1"><mxGeometry x="185" y="110" width="110" height="50" as="geometry"/></mxCell><mxCell id="rwp5MIVAtEDC9UN3TwBV-16" value="Bridge" style="shape=umlFrame;whiteSpace=wrap;html=1;dashed=1;fillColor=#F2CC8F;strokeColor=#E07A5F;fontColor=#393C56;" parent="rwp5MIVAtEDC9UN3TwBV-1" vertex="1"><mxGeometry x="80" y="200" width="700" height="200" as="geometry"/></mxCell></root></mxGraphModel></diagram><diagram id="e17wy6y9HOLE8UV0s2JO" name="composite"><mxGraphModel dx="1124" dy="749" grid="1" gridSize="10" guides="1" tooltips="1" connect="1" arrows="1" fold="1" page="1" pageScale="1" pageWidth="850" pageHeight="1100" background="#F4F1DE" math="0" shadow="0"><root><mxCell id="q4wFNVcehMiTwql2viTr-0"/><mxCell id="q4wFNVcehMiTwql2viTr-1" parent="q4wFNVcehMiTwql2viTr-0"/><mxCell id="wkOZJkbDr5MiL2LeqneI-63" style="edgeStyle=orthogonalEdgeStyle;curved=0;rounded=1;sketch=0;orthogonalLoop=1;jettySize=auto;html=1;entryX=0.45;entryY=-0.018;entryDx=0;entryDy=0;entryPerimeter=0;dashed=1;fontColor=#393C56;strokeColor=#E07A5F;fillColor=#F2CC8F;" parent="q4wFNVcehMiTwql2viTr-1" source="wkOZJkbDr5MiL2LeqneI-0" target="wkOZJkbDr5MiL2LeqneI-2" edge="1"><mxGeometry relative="1" as="geometry"/></mxCell><mxCell id="wkOZJkbDr5MiL2LeqneI-0" value="Client" style="html=1;rounded=0;sketch=0;fontColor=#393C56;strokeColor=#E07A5F;fillColor=#F2CC8F;" parent="q4wFNVcehMiTwql2viTr-1" vertex="1"><mxGeometry x="315" y="140" width="110" height="50" as="geometry"/></mxCell><mxCell id="wkOZJkbDr5MiL2LeqneI-2" value="&lt;p style=&quot;margin: 0px ; margin-top: 4px ; text-align: center&quot;&gt;&lt;i&gt;&amp;lt;&amp;lt;Interface&amp;gt;&amp;gt;&lt;/i&gt;&lt;br&gt;&lt;b&gt;GraphicComponent&lt;/b&gt;&lt;/p&gt;&lt;hr size=&quot;1&quot;&gt;&lt;p style=&quot;margin: 0px ; margin-left: 4px&quot;&gt;+ render(): void&lt;/p&gt;" style="verticalAlign=top;align=left;overflow=fill;fontSize=12;fontFamily=Helvetica;html=1;rounded=0;sketch=0;fontColor=#393C56;strokeColor=#E07A5F;fillColor=#F2CC8F;" parent="q4wFNVcehMiTwql2viTr-1" vertex="1"><mxGeometry x="285" y="250" width="190" height="80" as="geometry"/></mxCell><mxCell id="wkOZJkbDr5MiL2LeqneI-8" style="edgeStyle=orthogonalEdgeStyle;curved=0;rounded=1;sketch=0;orthogonalLoop=1;jettySize=auto;html=1;entryX=0.5;entryY=1;entryDx=0;entryDy=0;fontColor=#393C56;strokeColor=#E07A5F;fillColor=#F2CC8F;" parent="q4wFNVcehMiTwql2viTr-1" source="wkOZJkbDr5MiL2LeqneI-3" target="wkOZJkbDr5MiL2LeqneI-2" edge="1"><mxGeometry relative="1" as="geometry"/></mxCell><mxCell id="wkOZJkbDr5MiL2LeqneI-3" value="Window" style="swimlane;fontStyle=1;align=center;verticalAlign=top;childLayout=stackLayout;horizontal=1;startSize=26;horizontalStack=0;resizeParent=1;resizeParentMax=0;resizeLast=0;collapsible=1;marginBottom=0;rounded=0;sketch=0;fontColor=#393C56;strokeColor=#E07A5F;fillColor=#F2CC8F;" parent="q4wFNVcehMiTwql2viTr-1" vertex="1"><mxGeometry x="300" y="400" width="160" height="164" as="geometry"/></mxCell><mxCell id="wkOZJkbDr5MiL2LeqneI-52" value="+ width: double" style="text;strokeColor=none;fillColor=none;align=left;verticalAlign=top;spacingLeft=4;spacingRight=4;overflow=hidden;rotatable=0;points=[[0,0.5],[1,0.5]];portConstraint=eastwest;rounded=0;sketch=0;fontColor=#393C56;" parent="wkOZJkbDr5MiL2LeqneI-3" vertex="1"><mxGeometry y="26" width="160" height="26" as="geometry"/></mxCell><mxCell id="wkOZJkbDr5MiL2LeqneI-35" value="+ height: double" style="text;strokeColor=none;fillColor=none;align=left;verticalAlign=top;spacingLeft=4;spacingRight=4;overflow=hidden;rotatable=0;points=[[0,0.5],[1,0.5]];portConstraint=eastwest;rounded=0;sketch=0;fontColor=#393C56;" parent="wkOZJkbDr5MiL2LeqneI-3" vertex="1"><mxGeometry y="52" width="160" height="26" as="geometry"/></mxCell><mxCell id="wkOZJkbDr5MiL2LeqneI-53" value="+ fullScreen: boolean" style="text;strokeColor=none;fillColor=none;align=left;verticalAlign=top;spacingLeft=4;spacingRight=4;overflow=hidden;rotatable=0;points=[[0,0.5],[1,0.5]];portConstraint=eastwest;rounded=0;sketch=0;fontColor=#393C56;" parent="wkOZJkbDr5MiL2LeqneI-3" vertex="1"><mxGeometry y="78" width="160" height="26" as="geometry"/></mxCell><mxCell id="wkOZJkbDr5MiL2LeqneI-54" value="+ children: []" style="text;strokeColor=none;fillColor=none;align=left;verticalAlign=top;spacingLeft=4;spacingRight=4;overflow=hidden;rotatable=0;points=[[0,0.5],[1,0.5]];portConstraint=eastwest;rounded=0;sketch=0;fontColor=#393C56;" parent="wkOZJkbDr5MiL2LeqneI-3" vertex="1"><mxGeometry y="104" width="160" height="26" as="geometry"/></mxCell><mxCell id="wkOZJkbDr5MiL2LeqneI-51" value="" style="line;strokeWidth=1;fillColor=none;align=left;verticalAlign=middle;spacingTop=-1;spacingLeft=3;spacingRight=3;rotatable=0;labelPosition=right;points=[];portConstraint=eastwest;" parent="wkOZJkbDr5MiL2LeqneI-3" vertex="1"><mxGeometry y="130" width="160" height="8" as="geometry"/></mxCell><mxCell id="wkOZJkbDr5MiL2LeqneI-6" value="+ render(): void" style="text;strokeColor=none;fillColor=none;align=left;verticalAlign=top;spacingLeft=4;spacingRight=4;overflow=hidden;rotatable=0;points=[[0,0.5],[1,0.5]];portConstraint=eastwest;" parent="wkOZJkbDr5MiL2LeqneI-3" vertex="1"><mxGeometry y="138" width="160" height="26" as="geometry"/></mxCell><mxCell id="wkOZJkbDr5MiL2LeqneI-14" style="edgeStyle=orthogonalEdgeStyle;curved=0;rounded=1;sketch=0;orthogonalLoop=1;jettySize=auto;html=1;dashed=1;fontColor=#393C56;strokeColor=#E07A5F;fillColor=#F2CC8F;" parent="q4wFNVcehMiTwql2viTr-1" source="wkOZJkbDr5MiL2LeqneI-20" edge="1"><mxGeometry relative="1" as="geometry"><mxPoint x="285" y="300" as="targetPoint"/><mxPoint x="180.0344827586207" y="400.0000000000001" as="sourcePoint"/><Array as="points"><mxPoint x="160" y="300"/><mxPoint x="285" y="300"/></Array></mxGeometry></mxCell><mxCell id="wkOZJkbDr5MiL2LeqneI-65" style="edgeStyle=orthogonalEdgeStyle;curved=0;rounded=1;sketch=0;orthogonalLoop=1;jettySize=auto;html=1;entryX=-0.01;entryY=0.061;entryDx=0;entryDy=0;entryPerimeter=0;fontColor=#393C56;strokeColor=#E07A5F;fillColor=#F2CC8F;" parent="q4wFNVcehMiTwql2viTr-1" source="wkOZJkbDr5MiL2LeqneI-20" target="wkOZJkbDr5MiL2LeqneI-3" edge="1"><mxGeometry relative="1" as="geometry"><Array as="points"><mxPoint x="170" y="466"/><mxPoint x="280" y="466"/><mxPoint x="280" y="410"/></Array></mxGeometry></mxCell><mxCell id="wkOZJkbDr5MiL2LeqneI-20" value="Panel" style="swimlane;fontStyle=1;align=center;verticalAlign=top;childLayout=stackLayout;horizontal=1;startSize=26;horizontalStack=0;resizeParent=1;resizeParentMax=0;resizeLast=0;collapsible=1;marginBottom=0;rounded=0;sketch=0;fontColor=#393C56;strokeColor=#E07A5F;fillColor=#F2CC8F;" parent="q4wFNVcehMiTwql2viTr-1" vertex="1"><mxGeometry x="70" y="486" width="200" height="144" as="geometry"><mxRectangle x="390" y="520" width="60" height="26" as="alternateBounds"/></mxGeometry></mxCell><mxCell id="wkOZJkbDr5MiL2LeqneI-32" value="+ width: double" style="text;strokeColor=none;fillColor=none;align=left;verticalAlign=top;spacingLeft=4;spacingRight=4;overflow=hidden;rotatable=0;points=[[0,0.5],[1,0.5]];portConstraint=eastwest;rounded=0;sketch=0;fontColor=#393C56;" parent="wkOZJkbDr5MiL2LeqneI-20" vertex="1"><mxGeometry y="26" width="200" height="26" as="geometry"/></mxCell><mxCell id="wkOZJkbDr5MiL2LeqneI-36" value="+ parent: GraphicComponent" style="text;strokeColor=none;fillColor=none;align=left;verticalAlign=top;spacingLeft=4;spacingRight=4;overflow=hidden;rotatable=0;points=[[0,0.5],[1,0.5]];portConstraint=eastwest;rounded=0;sketch=0;fontColor=#393C56;" parent="wkOZJkbDr5MiL2LeqneI-20" vertex="1"><mxGeometry y="52" width="200" height="26" as="geometry"/></mxCell><mxCell id="wkOZJkbDr5MiL2LeqneI-37" value="+ children: []" style="text;strokeColor=none;fillColor=none;align=left;verticalAlign=top;spacingLeft=4;spacingRight=4;overflow=hidden;rotatable=0;points=[[0,0.5],[1,0.5]];portConstraint=eastwest;rounded=0;sketch=0;fontColor=#393C56;" parent="wkOZJkbDr5MiL2LeqneI-20" vertex="1"><mxGeometry y="78" width="200" height="26" as="geometry"/></mxCell><mxCell id="wkOZJkbDr5MiL2LeqneI-22" value="" style="line;strokeWidth=1;fillColor=none;align=left;verticalAlign=middle;spacingTop=-1;spacingLeft=3;spacingRight=3;rotatable=0;labelPosition=right;points=[];portConstraint=eastwest;" parent="wkOZJkbDr5MiL2LeqneI-20" vertex="1"><mxGeometry y="104" width="200" height="8" as="geometry"/></mxCell><mxCell id="wkOZJkbDr5MiL2LeqneI-23" value="+ render(): void" style="text;strokeColor=none;fillColor=none;align=left;verticalAlign=top;spacingLeft=4;spacingRight=4;overflow=hidden;rotatable=0;points=[[0,0.5],[1,0.5]];portConstraint=eastwest;" parent="wkOZJkbDr5MiL2LeqneI-20" vertex="1"><mxGeometry y="112" width="200" height="32" as="geometry"/></mxCell><mxCell id="wkOZJkbDr5MiL2LeqneI-46" style="edgeStyle=orthogonalEdgeStyle;curved=0;rounded=1;sketch=0;orthogonalLoop=1;jettySize=auto;html=1;dashed=1;fontColor=#393C56;strokeColor=#E07A5F;fillColor=#F2CC8F;entryX=0.45;entryY=1;entryDx=0;entryDy=0;entryPerimeter=0;" parent="q4wFNVcehMiTwql2viTr-1" source="wkOZJkbDr5MiL2LeqneI-42" edge="1"><mxGeometry relative="1" as="geometry"><mxPoint x="160" y="630" as="targetPoint"/></mxGeometry></mxCell><mxCell id="wkOZJkbDr5MiL2LeqneI-42" value="Button" style="swimlane;fontStyle=1;align=center;verticalAlign=top;childLayout=stackLayout;horizontal=1;startSize=26;horizontalStack=0;resizeParent=1;resizeParentMax=0;resizeLast=0;collapsible=1;marginBottom=0;rounded=0;sketch=0;fontColor=#393C56;strokeColor=#E07A5F;fillColor=#F2CC8F;" parent="q4wFNVcehMiTwql2viTr-1" vertex="1"><mxGeometry x="80" y="706" width="160" height="164" as="geometry"/></mxCell><mxCell id="wkOZJkbDr5MiL2LeqneI-47" value="+ width: double" style="text;strokeColor=none;fillColor=none;align=left;verticalAlign=top;spacingLeft=4;spacingRight=4;overflow=hidden;rotatable=0;points=[[0,0.5],[1,0.5]];portConstraint=eastwest;rounded=0;sketch=0;fontColor=#393C56;" parent="wkOZJkbDr5MiL2LeqneI-42" vertex="1"><mxGeometry y="26" width="160" height="26" as="geometry"/></mxCell><mxCell id="wkOZJkbDr5MiL2LeqneI-48" value="+ height: double" style="text;strokeColor=none;fillColor=none;align=left;verticalAlign=top;spacingLeft=4;spacingRight=4;overflow=hidden;rotatable=0;points=[[0,0.5],[1,0.5]];portConstraint=eastwest;rounded=0;sketch=0;fontColor=#393C56;" parent="wkOZJkbDr5MiL2LeqneI-42" vertex="1"><mxGeometry y="52" width="160" height="26" as="geometry"/></mxCell><mxCell id="wkOZJkbDr5MiL2LeqneI-49" value="+ color: String" style="text;strokeColor=none;fillColor=none;align=left;verticalAlign=top;spacingLeft=4;spacingRight=4;overflow=hidden;rotatable=0;points=[[0,0.5],[1,0.5]];portConstraint=eastwest;rounded=0;sketch=0;fontColor=#393C56;" parent="wkOZJkbDr5MiL2LeqneI-42" vertex="1"><mxGeometry y="78" width="160" height="26" as="geometry"/></mxCell><mxCell id="wkOZJkbDr5MiL2LeqneI-50" value="+ label: String" style="text;strokeColor=none;fillColor=none;align=left;verticalAlign=top;spacingLeft=4;spacingRight=4;overflow=hidden;rotatable=0;points=[[0,0.5],[1,0.5]];portConstraint=eastwest;rounded=0;sketch=0;fontColor=#393C56;" parent="wkOZJkbDr5MiL2LeqneI-42" vertex="1"><mxGeometry y="104" width="160" height="26" as="geometry"/></mxCell><mxCell id="wkOZJkbDr5MiL2LeqneI-44" value="" style="line;strokeWidth=1;fillColor=none;align=left;verticalAlign=middle;spacingTop=-1;spacingLeft=3;spacingRight=3;rotatable=0;labelPosition=right;points=[];portConstraint=eastwest;" parent="wkOZJkbDr5MiL2LeqneI-42" vertex="1"><mxGeometry y="130" width="160" height="8" as="geometry"/></mxCell><mxCell id="wkOZJkbDr5MiL2LeqneI-45" value="+ render(): void" style="text;strokeColor=none;fillColor=none;align=left;verticalAlign=top;spacingLeft=4;spacingRight=4;overflow=hidden;rotatable=0;points=[[0,0.5],[1,0.5]];portConstraint=eastwest;" parent="wkOZJkbDr5MiL2LeqneI-42" vertex="1"><mxGeometry y="138" width="160" height="26" as="geometry"/></mxCell><mxCell id="wkOZJkbDr5MiL2LeqneI-64" style="edgeStyle=orthogonalEdgeStyle;curved=0;rounded=1;sketch=0;orthogonalLoop=1;jettySize=auto;html=1;dashed=1;fontColor=#393C56;strokeColor=#E07A5F;fillColor=#F2CC8F;" parent="q4wFNVcehMiTwql2viTr-1" source="wkOZJkbDr5MiL2LeqneI-55" edge="1"><mxGeometry relative="1" as="geometry"><mxPoint x="475" y="300" as="targetPoint"/><Array as="points"><mxPoint x="600" y="300"/></Array></mxGeometry></mxCell><mxCell id="wkOZJkbDr5MiL2LeqneI-66" style="edgeStyle=orthogonalEdgeStyle;curved=0;rounded=1;sketch=0;orthogonalLoop=1;jettySize=auto;html=1;entryX=1.016;entryY=0.051;entryDx=0;entryDy=0;entryPerimeter=0;fontColor=#393C56;strokeColor=#E07A5F;fillColor=#F2CC8F;" parent="q4wFNVcehMiTwql2viTr-1" source="wkOZJkbDr5MiL2LeqneI-55" target="wkOZJkbDr5MiL2LeqneI-3" edge="1"><mxGeometry relative="1" as="geometry"/></mxCell><mxCell id="wkOZJkbDr5MiL2LeqneI-55" value="Button" style="swimlane;fontStyle=1;align=center;verticalAlign=top;childLayout=stackLayout;horizontal=1;startSize=26;horizontalStack=0;resizeParent=1;resizeParentMax=0;resizeLast=0;collapsible=1;marginBottom=0;rounded=0;sketch=0;fontColor=#393C56;strokeColor=#E07A5F;fillColor=#F2CC8F;" parent="q4wFNVcehMiTwql2viTr-1" vertex="1"><mxGeometry x="520" y="466" width="160" height="164" as="geometry"/></mxCell><mxCell id="wkOZJkbDr5MiL2LeqneI-56" value="+ width: double" style="text;strokeColor=none;fillColor=none;align=left;verticalAlign=top;spacingLeft=4;spacingRight=4;overflow=hidden;rotatable=0;points=[[0,0.5],[1,0.5]];portConstraint=eastwest;rounded=0;sketch=0;fontColor=#393C56;" parent="wkOZJkbDr5MiL2LeqneI-55" vertex="1"><mxGeometry y="26" width="160" height="26" as="geometry"/></mxCell><mxCell id="wkOZJkbDr5MiL2LeqneI-57" value="+ height: double" style="text;strokeColor=none;fillColor=none;align=left;verticalAlign=top;spacingLeft=4;spacingRight=4;overflow=hidden;rotatable=0;points=[[0,0.5],[1,0.5]];portConstraint=eastwest;rounded=0;sketch=0;fontColor=#393C56;" parent="wkOZJkbDr5MiL2LeqneI-55" vertex="1"><mxGeometry y="52" width="160" height="26" as="geometry"/></mxCell><mxCell id="wkOZJkbDr5MiL2LeqneI-58" value="+ color: String" style="text;strokeColor=none;fillColor=none;align=left;verticalAlign=top;spacingLeft=4;spacingRight=4;overflow=hidden;rotatable=0;points=[[0,0.5],[1,0.5]];portConstraint=eastwest;rounded=0;sketch=0;fontColor=#393C56;" parent="wkOZJkbDr5MiL2LeqneI-55" vertex="1"><mxGeometry y="78" width="160" height="26" as="geometry"/></mxCell><mxCell id="wkOZJkbDr5MiL2LeqneI-59" value="+ label: String" style="text;strokeColor=none;fillColor=none;align=left;verticalAlign=top;spacingLeft=4;spacingRight=4;overflow=hidden;rotatable=0;points=[[0,0.5],[1,0.5]];portConstraint=eastwest;rounded=0;sketch=0;fontColor=#393C56;" parent="wkOZJkbDr5MiL2LeqneI-55" vertex="1"><mxGeometry y="104" width="160" height="26" as="geometry"/></mxCell><mxCell id="wkOZJkbDr5MiL2LeqneI-60" value="" style="line;strokeWidth=1;fillColor=none;align=left;verticalAlign=middle;spacingTop=-1;spacingLeft=3;spacingRight=3;rotatable=0;labelPosition=right;points=[];portConstraint=eastwest;" parent="wkOZJkbDr5MiL2LeqneI-55" vertex="1"><mxGeometry y="130" width="160" height="8" as="geometry"/></mxCell><mxCell id="wkOZJkbDr5MiL2LeqneI-61" value="+ render(): void" style="text;strokeColor=none;fillColor=none;align=left;verticalAlign=top;spacingLeft=4;spacingRight=4;overflow=hidden;rotatable=0;points=[[0,0.5],[1,0.5]];portConstraint=eastwest;" parent="wkOZJkbDr5MiL2LeqneI-55" vertex="1"><mxGeometry y="138" width="160" height="26" as="geometry"/></mxCell></root></mxGraphModel></diagram></mxfile>